<mxfile host="Electron" agent="Mozilla/5.0 (Windows NT 10.0; Win64; x64) AppleWebKit/537.36 (KHTML, like Gecko) draw.io/24.7.17 Chrome/128.0.6613.36 Electron/32.0.1 Safari/537.36" version="24.7.17">
  <diagram name="ページ1" id="OZ27yUFGQaLUmOwBfmG1">
    <mxGraphModel dx="780" dy="496" grid="1" gridSize="10" guides="1" tooltips="1" connect="1" arrows="1" fold="1" page="1" pageScale="1" pageWidth="827" pageHeight="1169" math="0" shadow="0">
      <root>
        <mxCell id="0" />
        <mxCell id="1" parent="0" />
        <mxCell id="Nxn4Z3qcUavm5EaymW28-1" value="乗り物" style="rounded=0;whiteSpace=wrap;html=1;" parent="1" vertex="1">
          <mxGeometry x="130" y="40" width="120" height="60" as="geometry" />
        </mxCell>
        <mxCell id="Nxn4Z3qcUavm5EaymW28-2" value="車" style="rounded=0;whiteSpace=wrap;html=1;" parent="1" vertex="1">
          <mxGeometry x="5" y="160" width="120" height="60" as="geometry" />
        </mxCell>
        <mxCell id="Nxn4Z3qcUavm5EaymW28-3" value="船" style="rounded=0;whiteSpace=wrap;html=1;" parent="1" vertex="1">
          <mxGeometry x="130" y="160" width="120" height="60" as="geometry" />
        </mxCell>
        <mxCell id="Nxn4Z3qcUavm5EaymW28-4" value="飛行機" style="rounded=0;whiteSpace=wrap;html=1;" parent="1" vertex="1">
          <mxGeometry x="260" y="160" width="120" height="60" as="geometry" />
        </mxCell>
        <mxCell id="Nxn4Z3qcUavm5EaymW28-6" value="" style="endArrow=block;html=1;rounded=0;endFill=0;entryX=0.75;entryY=1;entryDx=0;entryDy=0;exitX=0.5;exitY=0;exitDx=0;exitDy=0;" parent="1" source="Nxn4Z3qcUavm5EaymW28-4" target="Nxn4Z3qcUavm5EaymW28-1" edge="1">
          <mxGeometry width="50" height="50" relative="1" as="geometry">
            <mxPoint x="420" y="170" as="sourcePoint" />
            <mxPoint x="470" y="120" as="targetPoint" />
          </mxGeometry>
        </mxCell>
        <mxCell id="Nxn4Z3qcUavm5EaymW28-8" value="" style="endArrow=block;html=1;rounded=0;endFill=0;entryX=0.25;entryY=1;entryDx=0;entryDy=0;exitX=0.5;exitY=0;exitDx=0;exitDy=0;" parent="1" source="Nxn4Z3qcUavm5EaymW28-2" target="Nxn4Z3qcUavm5EaymW28-1" edge="1">
          <mxGeometry width="50" height="50" relative="1" as="geometry">
            <mxPoint x="491" y="130" as="sourcePoint" />
            <mxPoint x="337" y="60" as="targetPoint" />
          </mxGeometry>
        </mxCell>
        <mxCell id="Nxn4Z3qcUavm5EaymW28-9" value="" style="endArrow=block;html=1;rounded=0;endFill=0;entryX=0.5;entryY=1;entryDx=0;entryDy=0;exitX=0.5;exitY=0;exitDx=0;exitDy=0;" parent="1" source="Nxn4Z3qcUavm5EaymW28-3" target="Nxn4Z3qcUavm5EaymW28-1" edge="1">
          <mxGeometry width="50" height="50" relative="1" as="geometry">
            <mxPoint x="150" y="200" as="sourcePoint" />
            <mxPoint x="270" y="130" as="targetPoint" />
          </mxGeometry>
        </mxCell>
        <mxCell id="Nxn4Z3qcUavm5EaymW28-10" value="汎化　is a 関係" style="rounded=0;whiteSpace=wrap;html=1;fillColor=none;strokeColor=none;" parent="1" vertex="1">
          <mxGeometry x="10" y="30" width="110" height="30" as="geometry" />
        </mxCell>
        <mxCell id="Nxn4Z3qcUavm5EaymW28-11" value="車" style="rounded=0;whiteSpace=wrap;html=1;" parent="1" vertex="1">
          <mxGeometry x="125" y="280" width="120" height="60" as="geometry" />
        </mxCell>
        <mxCell id="Nxn4Z3qcUavm5EaymW28-12" value="エンジン" style="rounded=0;whiteSpace=wrap;html=1;" parent="1" vertex="1">
          <mxGeometry x="40" y="380" width="100" height="60" as="geometry" />
        </mxCell>
        <mxCell id="Nxn4Z3qcUavm5EaymW28-13" value="ライト" style="rounded=0;whiteSpace=wrap;html=1;" parent="1" vertex="1">
          <mxGeometry x="260" y="490" width="120" height="60" as="geometry" />
        </mxCell>
        <mxCell id="Nxn4Z3qcUavm5EaymW28-14" value="ボディ" style="rounded=0;whiteSpace=wrap;html=1;" parent="1" vertex="1">
          <mxGeometry x="190" y="380" width="120" height="60" as="geometry" />
        </mxCell>
        <mxCell id="Nxn4Z3qcUavm5EaymW28-15" value="ハンドル" style="rounded=0;whiteSpace=wrap;html=1;" parent="1" vertex="1">
          <mxGeometry x="130" y="490" width="120" height="60" as="geometry" />
        </mxCell>
        <mxCell id="Nxn4Z3qcUavm5EaymW28-16" value="" style="endArrow=diamondThin;endFill=0;endSize=24;html=1;rounded=0;entryX=0.25;entryY=1;entryDx=0;entryDy=0;exitX=0.5;exitY=0;exitDx=0;exitDy=0;" parent="1" source="Nxn4Z3qcUavm5EaymW28-12" target="Nxn4Z3qcUavm5EaymW28-11" edge="1">
          <mxGeometry width="160" relative="1" as="geometry">
            <mxPoint x="220" y="580" as="sourcePoint" />
            <mxPoint x="380" y="580" as="targetPoint" />
          </mxGeometry>
        </mxCell>
        <mxCell id="Nxn4Z3qcUavm5EaymW28-19" value="" style="endArrow=diamondThin;endFill=0;endSize=24;html=1;rounded=0;entryX=0.75;entryY=1;entryDx=0;entryDy=0;exitX=0.5;exitY=0;exitDx=0;exitDy=0;" parent="1" source="Nxn4Z3qcUavm5EaymW28-14" target="Nxn4Z3qcUavm5EaymW28-11" edge="1">
          <mxGeometry width="160" relative="1" as="geometry">
            <mxPoint x="280" y="480" as="sourcePoint" />
            <mxPoint x="320" y="430" as="targetPoint" />
          </mxGeometry>
        </mxCell>
        <mxCell id="Nxn4Z3qcUavm5EaymW28-20" value="" style="endArrow=diamondThin;endFill=0;endSize=24;html=1;rounded=0;entryX=0.75;entryY=1;entryDx=0;entryDy=0;exitX=0.5;exitY=0;exitDx=0;exitDy=0;" parent="1" source="Nxn4Z3qcUavm5EaymW28-13" target="Nxn4Z3qcUavm5EaymW28-14" edge="1">
          <mxGeometry width="160" relative="1" as="geometry">
            <mxPoint x="390" y="510" as="sourcePoint" />
            <mxPoint x="340" y="440" as="targetPoint" />
          </mxGeometry>
        </mxCell>
        <mxCell id="Nxn4Z3qcUavm5EaymW28-21" value="" style="endArrow=diamondThin;endFill=0;endSize=24;html=1;rounded=0;entryX=0.25;entryY=1;entryDx=0;entryDy=0;exitX=0.5;exitY=0;exitDx=0;exitDy=0;" parent="1" source="Nxn4Z3qcUavm5EaymW28-15" target="Nxn4Z3qcUavm5EaymW28-14" edge="1">
          <mxGeometry width="160" relative="1" as="geometry">
            <mxPoint x="190" y="630" as="sourcePoint" />
            <mxPoint x="230" y="550" as="targetPoint" />
          </mxGeometry>
        </mxCell>
        <mxCell id="Nxn4Z3qcUavm5EaymW28-22" value="集約　has a 関係" style="rounded=0;whiteSpace=wrap;html=1;fillColor=none;strokeColor=none;" parent="1" vertex="1">
          <mxGeometry y="290" width="110" height="30" as="geometry" />
        </mxCell>
        <mxCell id="Nxn4Z3qcUavm5EaymW28-23" value="利用者" style="rounded=0;whiteSpace=wrap;html=1;" parent="1" vertex="1">
          <mxGeometry x="630" y="660" width="120" height="60" as="geometry" />
        </mxCell>
        <mxCell id="Nxn4Z3qcUavm5EaymW28-24" value="図書カード" style="rounded=0;whiteSpace=wrap;html=1;" parent="1" vertex="1">
          <mxGeometry x="630" y="800" width="120" height="60" as="geometry" />
        </mxCell>
        <mxCell id="Nxn4Z3qcUavm5EaymW28-25" value="" style="endArrow=diamondThin;endFill=0;endSize=24;html=1;rounded=0;entryX=0.45;entryY=1;entryDx=0;entryDy=0;entryPerimeter=0;exitX=0.5;exitY=0;exitDx=0;exitDy=0;" parent="1" source="Nxn4Z3qcUavm5EaymW28-24" target="Nxn4Z3qcUavm5EaymW28-23" edge="1">
          <mxGeometry width="160" relative="1" as="geometry">
            <mxPoint x="730" y="580" as="sourcePoint" />
            <mxPoint x="205" y="730" as="targetPoint" />
          </mxGeometry>
        </mxCell>
        <mxCell id="Nxn4Z3qcUavm5EaymW28-26" value="ID" style="rounded=0;whiteSpace=wrap;html=1;" parent="1" vertex="1">
          <mxGeometry x="590" y="1030" width="120" height="60" as="geometry" />
        </mxCell>
        <mxCell id="Nxn4Z3qcUavm5EaymW28-27" value="" style="endArrow=diamondThin;endFill=0;endSize=24;html=1;rounded=0;entryX=0.5;entryY=1;entryDx=0;entryDy=0;exitX=0.5;exitY=0;exitDx=0;exitDy=0;" parent="1" source="Nxn4Z3qcUavm5EaymW28-26" target="Nxn4Z3qcUavm5EaymW28-24" edge="1">
          <mxGeometry width="160" relative="1" as="geometry">
            <mxPoint x="653" y="740" as="sourcePoint" />
            <mxPoint x="647" y="680" as="targetPoint" />
          </mxGeometry>
        </mxCell>
        <mxCell id="Nxn4Z3qcUavm5EaymW28-28" value="パスワード" style="rounded=0;whiteSpace=wrap;html=1;" parent="1" vertex="1">
          <mxGeometry x="470" y="1030" width="120" height="60" as="geometry" />
        </mxCell>
        <mxCell id="Nxn4Z3qcUavm5EaymW28-33" value="" style="endArrow=diamondThin;endFill=0;endSize=24;html=1;rounded=0;entryX=0.25;entryY=1;entryDx=0;entryDy=0;exitX=0.5;exitY=0;exitDx=0;exitDy=0;" parent="1" source="Nxn4Z3qcUavm5EaymW28-28" target="Nxn4Z3qcUavm5EaymW28-24" edge="1">
          <mxGeometry width="160" relative="1" as="geometry">
            <mxPoint x="560" y="750" as="sourcePoint" />
            <mxPoint x="530" y="640" as="targetPoint" />
          </mxGeometry>
        </mxCell>
        <mxCell id="Nxn4Z3qcUavm5EaymW28-34" value="図書" style="rounded=0;whiteSpace=wrap;html=1;" parent="1" vertex="1">
          <mxGeometry x="260" y="660" width="120" height="60" as="geometry" />
        </mxCell>
        <mxCell id="Nxn4Z3qcUavm5EaymW28-35" value="書名" style="rounded=0;whiteSpace=wrap;html=1;" parent="1" vertex="1">
          <mxGeometry x="245" y="800" width="120" height="60" as="geometry" />
        </mxCell>
        <mxCell id="Nxn4Z3qcUavm5EaymW28-36" value="著書名" style="rounded=0;whiteSpace=wrap;html=1;" parent="1" vertex="1">
          <mxGeometry x="365" y="800" width="120" height="60" as="geometry" />
        </mxCell>
        <mxCell id="Nxn4Z3qcUavm5EaymW28-37" value="" style="endArrow=diamondThin;endFill=0;endSize=24;html=1;rounded=0;entryX=0.75;entryY=1;entryDx=0;entryDy=0;exitX=0.5;exitY=0;exitDx=0;exitDy=0;" parent="1" source="Nxn4Z3qcUavm5EaymW28-36" target="Nxn4Z3qcUavm5EaymW28-34" edge="1">
          <mxGeometry width="160" relative="1" as="geometry">
            <mxPoint x="410" y="960" as="sourcePoint" />
            <mxPoint x="570" y="960" as="targetPoint" />
          </mxGeometry>
        </mxCell>
        <mxCell id="Nxn4Z3qcUavm5EaymW28-38" value="" style="endArrow=diamondThin;endFill=0;endSize=24;html=1;rounded=0;entryX=0.5;entryY=1;entryDx=0;entryDy=0;exitX=0.5;exitY=0;exitDx=0;exitDy=0;" parent="1" source="Nxn4Z3qcUavm5EaymW28-35" target="Nxn4Z3qcUavm5EaymW28-34" edge="1">
          <mxGeometry width="160" relative="1" as="geometry">
            <mxPoint x="285" y="1060" as="sourcePoint" />
            <mxPoint x="395" y="920" as="targetPoint" />
          </mxGeometry>
        </mxCell>
        <mxCell id="Nxn4Z3qcUavm5EaymW28-39" value="借りている本" style="rounded=0;whiteSpace=wrap;html=1;" parent="1" vertex="1">
          <mxGeometry x="1061" y="775.5" width="120" height="60" as="geometry" />
        </mxCell>
        <mxCell id="Nxn4Z3qcUavm5EaymW28-40" value="貸し出し期限" style="rounded=0;whiteSpace=wrap;html=1;" parent="1" vertex="1">
          <mxGeometry x="1090" y="940" width="120" height="60" as="geometry" />
        </mxCell>
        <mxCell id="Nxn4Z3qcUavm5EaymW28-42" value="氏名" style="rounded=0;whiteSpace=wrap;html=1;" parent="1" vertex="1">
          <mxGeometry x="710" y="1030" width="120" height="60" as="geometry" />
        </mxCell>
        <mxCell id="Nxn4Z3qcUavm5EaymW28-44" value="電子メールアドレス" style="rounded=0;whiteSpace=wrap;html=1;" parent="1" vertex="1">
          <mxGeometry x="950" y="1030" width="120" height="60" as="geometry" />
        </mxCell>
        <mxCell id="Nxn4Z3qcUavm5EaymW28-47" value="検索" style="rounded=0;whiteSpace=wrap;html=1;fillColor=none;strokeColor=none;" parent="1" vertex="1">
          <mxGeometry x="450" y="640" width="120" height="60" as="geometry" />
        </mxCell>
        <mxCell id="Nxn4Z3qcUavm5EaymW28-50" value="" style="endArrow=none;html=1;rounded=0;entryX=0;entryY=0.5;entryDx=0;entryDy=0;exitX=1;exitY=0.5;exitDx=0;exitDy=0;" parent="1" source="Nxn4Z3qcUavm5EaymW28-34" target="Nxn4Z3qcUavm5EaymW28-23" edge="1">
          <mxGeometry width="50" height="50" relative="1" as="geometry">
            <mxPoint x="470" y="720" as="sourcePoint" />
            <mxPoint x="520" y="670" as="targetPoint" />
          </mxGeometry>
        </mxCell>
        <mxCell id="Nxn4Z3qcUavm5EaymW28-55" value="" style="endArrow=diamondThin;endFill=0;endSize=24;html=1;rounded=0;exitX=0.5;exitY=0;exitDx=0;exitDy=0;entryX=0.75;entryY=1;entryDx=0;entryDy=0;" parent="1" source="Nxn4Z3qcUavm5EaymW28-40" target="Nxn4Z3qcUavm5EaymW28-39" edge="1">
          <mxGeometry width="160" relative="1" as="geometry">
            <mxPoint x="1421" y="695.5" as="sourcePoint" />
            <mxPoint x="1581" y="695.5" as="targetPoint" />
          </mxGeometry>
        </mxCell>
        <mxCell id="Nxn4Z3qcUavm5EaymW28-56" value="" style="endArrow=diamondThin;endFill=0;endSize=24;html=1;rounded=0;entryX=1;entryY=1;entryDx=0;entryDy=0;exitX=0;exitY=0.5;exitDx=0;exitDy=0;" parent="1" source="Nxn4Z3qcUavm5EaymW28-42" target="Nxn4Z3qcUavm5EaymW28-24" edge="1">
          <mxGeometry width="160" relative="1" as="geometry">
            <mxPoint x="860" y="860" as="sourcePoint" />
            <mxPoint x="960" y="800" as="targetPoint" />
          </mxGeometry>
        </mxCell>
        <mxCell id="Nxn4Z3qcUavm5EaymW28-58" value="" style="endArrow=diamondThin;endFill=0;endSize=24;html=1;rounded=0;entryX=1;entryY=1;entryDx=0;entryDy=0;exitX=0;exitY=0.5;exitDx=0;exitDy=0;" parent="1" source="Nxn4Z3qcUavm5EaymW28-46" target="Nxn4Z3qcUavm5EaymW28-24" edge="1">
          <mxGeometry width="160" relative="1" as="geometry">
            <mxPoint x="930" y="870" as="sourcePoint" />
            <mxPoint x="1030" y="810" as="targetPoint" />
          </mxGeometry>
        </mxCell>
        <mxCell id="Nxn4Z3qcUavm5EaymW28-61" value="貸し出し中か" style="rounded=0;whiteSpace=wrap;html=1;" parent="1" vertex="1">
          <mxGeometry x="40" y="760" width="120" height="60" as="geometry" />
        </mxCell>
        <mxCell id="Nxn4Z3qcUavm5EaymW28-63" value="" style="endArrow=diamondThin;endFill=0;endSize=24;html=1;rounded=0;exitX=1;exitY=0.5;exitDx=0;exitDy=0;entryX=0.25;entryY=1;entryDx=0;entryDy=0;" parent="1" source="Nxn4Z3qcUavm5EaymW28-61" target="Nxn4Z3qcUavm5EaymW28-34" edge="1">
          <mxGeometry width="160" relative="1" as="geometry">
            <mxPoint x="120" y="720" as="sourcePoint" />
            <mxPoint x="90" y="611" as="targetPoint" />
          </mxGeometry>
        </mxCell>
        <mxCell id="Nxn4Z3qcUavm5EaymW28-64" value="どこの棚にあるか" style="rounded=0;whiteSpace=wrap;html=1;" parent="1" vertex="1">
          <mxGeometry x="40" y="700" width="120" height="60" as="geometry" />
        </mxCell>
        <mxCell id="Nxn4Z3qcUavm5EaymW28-65" value="" style="endArrow=diamondThin;endFill=0;endSize=24;html=1;rounded=0;exitX=1;exitY=0.5;exitDx=0;exitDy=0;entryX=0.25;entryY=1;entryDx=0;entryDy=0;" parent="1" source="Nxn4Z3qcUavm5EaymW28-64" target="Nxn4Z3qcUavm5EaymW28-34" edge="1">
          <mxGeometry width="160" relative="1" as="geometry">
            <mxPoint x="10" y="740" as="sourcePoint" />
            <mxPoint x="170" y="670" as="targetPoint" />
          </mxGeometry>
        </mxCell>
        <mxCell id="Nxn4Z3qcUavm5EaymW28-66" value="" style="endArrow=diamondThin;endFill=0;endSize=24;html=1;rounded=0;exitX=0;exitY=0.5;exitDx=0;exitDy=0;entryX=1;entryY=0.5;entryDx=0;entryDy=0;" parent="1" source="Nxn4Z3qcUavm5EaymW28-43" target="Nxn4Z3qcUavm5EaymW28-24" edge="1">
          <mxGeometry width="160" relative="1" as="geometry">
            <mxPoint x="970" y="809.5" as="sourcePoint" />
            <mxPoint x="940" y="700.5" as="targetPoint" />
          </mxGeometry>
        </mxCell>
        <mxCell id="Nxn4Z3qcUavm5EaymW28-67" value="著者" style="rounded=0;whiteSpace=wrap;html=1;" parent="1" vertex="1">
          <mxGeometry x="1210" y="940" width="120" height="60" as="geometry" />
        </mxCell>
        <mxCell id="Nxn4Z3qcUavm5EaymW28-68" value="書名" style="rounded=0;whiteSpace=wrap;html=1;" parent="1" vertex="1">
          <mxGeometry x="1310" y="800" width="120" height="60" as="geometry" />
        </mxCell>
        <mxCell id="Nxn4Z3qcUavm5EaymW28-69" value="" style="endArrow=diamondThin;endFill=0;endSize=24;html=1;rounded=0;exitX=0;exitY=0.5;exitDx=0;exitDy=0;entryX=1;entryY=0.5;entryDx=0;entryDy=0;" parent="1" source="Nxn4Z3qcUavm5EaymW28-68" target="Nxn4Z3qcUavm5EaymW28-39" edge="1">
          <mxGeometry width="160" relative="1" as="geometry">
            <mxPoint x="1271" y="824.5" as="sourcePoint" />
            <mxPoint x="1241" y="720.5" as="targetPoint" />
          </mxGeometry>
        </mxCell>
        <mxCell id="Nxn4Z3qcUavm5EaymW28-70" value="" style="endArrow=diamondThin;endFill=0;endSize=24;html=1;rounded=0;exitX=0.5;exitY=0;exitDx=0;exitDy=0;entryX=1;entryY=1;entryDx=0;entryDy=0;" parent="1" source="Nxn4Z3qcUavm5EaymW28-67" target="Nxn4Z3qcUavm5EaymW28-39" edge="1">
          <mxGeometry width="160" relative="1" as="geometry">
            <mxPoint x="1339" y="904.5" as="sourcePoint" />
            <mxPoint x="1210" y="880.5" as="targetPoint" />
          </mxGeometry>
        </mxCell>
        <mxCell id="Nxn4Z3qcUavm5EaymW28-71" value="あと何冊借りることができるか" style="rounded=0;whiteSpace=wrap;html=1;" parent="1" vertex="1">
          <mxGeometry x="380" y="970" width="120" height="60" as="geometry" />
        </mxCell>
        <mxCell id="Nxn4Z3qcUavm5EaymW28-72" value="" style="endArrow=diamondThin;endFill=0;endSize=24;html=1;rounded=0;entryX=0;entryY=0.5;entryDx=0;entryDy=0;exitX=0.5;exitY=0;exitDx=0;exitDy=0;" parent="1" source="Nxn4Z3qcUavm5EaymW28-71" target="Nxn4Z3qcUavm5EaymW28-24" edge="1">
          <mxGeometry width="160" relative="1" as="geometry">
            <mxPoint x="430" y="930" as="sourcePoint" />
            <mxPoint x="530" y="870" as="targetPoint" />
          </mxGeometry>
        </mxCell>
        <mxCell id="Nxn4Z3qcUavm5EaymW28-73" value="貸し出し予約" style="rounded=0;whiteSpace=wrap;html=1;" parent="1" vertex="1">
          <mxGeometry x="827" y="630" width="120" height="60" as="geometry" />
        </mxCell>
        <mxCell id="Nxn4Z3qcUavm5EaymW28-74" value="必要事項" style="rounded=0;whiteSpace=wrap;html=1;" parent="1" vertex="1">
          <mxGeometry x="1030" y="630" width="120" height="60" as="geometry" />
        </mxCell>
        <mxCell id="Nxn4Z3qcUavm5EaymW28-75" value="" style="endArrow=diamondThin;endFill=0;endSize=24;html=1;rounded=0;exitX=0;exitY=0.5;exitDx=0;exitDy=0;entryX=1;entryY=0.5;entryDx=0;entryDy=0;" parent="1" source="Nxn4Z3qcUavm5EaymW28-74" target="Nxn4Z3qcUavm5EaymW28-73" edge="1">
          <mxGeometry width="160" relative="1" as="geometry">
            <mxPoint x="1081" y="560.5" as="sourcePoint" />
            <mxPoint x="770" y="584.5" as="targetPoint" />
          </mxGeometry>
        </mxCell>
        <mxCell id="Nxn4Z3qcUavm5EaymW28-76" value="" style="endArrow=none;html=1;rounded=0;entryX=0;entryY=0.5;entryDx=0;entryDy=0;exitX=1;exitY=0.5;exitDx=0;exitDy=0;" parent="1" source="Nxn4Z3qcUavm5EaymW28-23" target="Nxn4Z3qcUavm5EaymW28-73" edge="1">
          <mxGeometry width="50" height="50" relative="1" as="geometry">
            <mxPoint x="580" y="600" as="sourcePoint" />
            <mxPoint x="830" y="600" as="targetPoint" />
          </mxGeometry>
        </mxCell>
        <mxCell id="Nxn4Z3qcUavm5EaymW28-77" value="" style="endArrow=diamondThin;endFill=0;endSize=24;html=1;rounded=0;exitX=0;exitY=0.5;exitDx=0;exitDy=0;entryX=1;entryY=0.5;entryDx=0;entryDy=0;" parent="1" source="Nxn4Z3qcUavm5EaymW28-39" target="Nxn4Z3qcUavm5EaymW28-24" edge="1">
          <mxGeometry width="160" relative="1" as="geometry">
            <mxPoint x="1061" y="806" as="sourcePoint" />
            <mxPoint x="750" y="830" as="targetPoint" />
          </mxGeometry>
        </mxCell>
        <mxCell id="Nxn4Z3qcUavm5EaymW28-43" value="住所" style="rounded=0;whiteSpace=wrap;html=1;" parent="1" vertex="1">
          <mxGeometry x="1070" y="1030" width="120" height="60" as="geometry" />
        </mxCell>
        <mxCell id="Nxn4Z3qcUavm5EaymW28-78" value="" style="endArrow=diamondThin;endFill=0;endSize=24;html=1;rounded=0;exitX=0;exitY=0.5;exitDx=0;exitDy=0;entryX=1;entryY=1;entryDx=0;entryDy=0;" parent="1" source="Nxn4Z3qcUavm5EaymW28-44" target="Nxn4Z3qcUavm5EaymW28-24" edge="1">
          <mxGeometry width="160" relative="1" as="geometry">
            <mxPoint x="910" y="1030" as="sourcePoint" />
            <mxPoint x="1000" y="950" as="targetPoint" />
          </mxGeometry>
        </mxCell>
        <mxCell id="Nxn4Z3qcUavm5EaymW28-46" value="電話番号" style="rounded=0;whiteSpace=wrap;html=1;" parent="1" vertex="1">
          <mxGeometry x="830" y="1030" width="120" height="60" as="geometry" />
        </mxCell>
      </root>
    </mxGraphModel>
  </diagram>
</mxfile>
